<svg width="405" height="58" viewBox="0 0 405 58" fill="none" xmlns="http://www.w3.org/2000/svg">
<path d="M391.902 56.265C391.902 56.8979 391.389 57.4109 390.756 57.4109H376.649C376.016 57.4109 375.503 56.8979 375.503 56.265V54.4641C375.503 53.8312 374.99 53.3181 374.357 53.3181H372.556C371.923 53.3181 371.41 52.8051 371.41 52.1722V50.3713C371.41 49.7384 370.897 49.2254 370.264 49.2254H368.463C367.83 49.2254 367.317 48.7123 367.317 48.0794V25.7586C367.317 25.1257 367.83 24.6127 368.463 24.6127H370.264C370.897 24.6127 371.41 24.0996 371.41 23.4668V21.6659C371.41 21.033 371.923 20.5199 372.556 20.5199H374.357C374.99 20.5199 375.503 20.0069 375.503 19.374V17.5731C375.503 16.9402 376.016 16.4271 376.649 16.4271H390.756C391.389 16.4271 391.902 16.9402 391.902 17.5731V19.374C391.902 20.0069 392.415 20.5199 393.048 20.5199H394.877C395.51 20.5199 396.023 20.0069 396.023 19.374V1.14594C396.023 0.513055 396.536 0 397.169 0H403.062C403.695 0 404.208 0.513052 404.208 1.14593V56.265C404.208 56.8979 403.695 57.4109 403.062 57.4109H397.169C396.536 57.4109 396.023 56.8979 396.023 56.265V54.4641C396.023 53.8312 395.51 53.3181 394.877 53.3181H393.048C392.415 53.3181 391.902 53.8312 391.902 54.4641V56.265ZM379.596 48.0794C379.596 48.7123 380.109 49.2254 380.742 49.2254H390.756C391.389 49.2254 391.902 48.7123 391.902 48.0794V46.2785C391.902 45.6457 392.415 45.1326 393.048 45.1326H394.877C395.51 45.1326 396.023 44.6196 396.023 43.9867V29.8514C396.023 29.2185 395.51 28.7055 394.877 28.7055H393.048C392.415 28.7055 391.902 28.1924 391.902 27.5595V25.7586C391.902 25.1257 391.389 24.6127 390.756 24.6127H380.742C380.109 24.6127 379.596 25.1257 379.596 25.7586V27.5595C379.596 28.1924 379.083 28.7055 378.45 28.7055H376.649C376.016 28.7055 375.503 29.2185 375.503 29.8514V43.9867C375.503 44.6196 376.016 45.1326 376.649 45.1326H378.45C379.083 45.1326 379.596 45.6457 379.596 46.2785V48.0794Z" fill="white"/>
<path d="M352.261 56.2651C352.261 56.898 351.748 57.411 351.115 57.411H345.221C344.588 57.411 344.075 56.898 344.075 56.2651V17.5732C344.075 16.9403 344.588 16.4272 345.221 16.4272H351.115C351.748 16.4272 352.261 16.9403 352.261 17.5732V19.3741C352.261 20.007 352.774 20.52 353.407 20.52H355.208C355.84 20.52 356.354 20.007 356.354 19.3741V17.5732C356.354 16.9403 356.867 16.4272 357.499 16.4272H365.468C366.1 16.4272 366.613 16.9403 366.613 17.5732V23.4669C366.613 24.0997 366.1 24.6128 365.468 24.6128H357.499C356.867 24.6128 356.354 25.1258 356.354 25.7587V27.5596C356.354 28.1925 355.84 28.7056 355.208 28.7056H353.407C352.774 28.7056 352.261 29.2186 352.261 29.8515V56.2651Z" fill="white"/>
<path d="M327.028 56.2651C327.028 56.898 326.515 57.411 325.882 57.411H311.775C311.142 57.411 310.629 56.898 310.629 56.2651V54.4642C310.629 53.8313 310.116 53.3182 309.483 53.3182H307.682C307.049 53.3182 306.536 52.8052 306.536 52.1723V50.3714C306.536 49.7385 306.023 49.2255 305.39 49.2255H303.589C302.956 49.2255 302.443 48.7124 302.443 48.0795V42.1578C302.443 41.525 302.956 41.0119 303.589 41.0119H305.39C306.023 41.0119 306.536 40.4988 306.536 39.866V38.0651C306.536 37.4322 307.049 36.9191 307.682 36.9191H313.576C314.209 36.9191 314.722 36.4061 314.722 35.7732V33.9723C314.722 33.3394 315.235 32.8264 315.868 32.8264H330.003C330.636 32.8264 331.149 32.3133 331.149 31.6804V29.8515C331.149 29.2186 330.636 28.7056 330.003 28.7056H328.174C327.541 28.7056 327.028 28.1925 327.028 27.5596V25.7587C327.028 25.1258 326.515 24.6128 325.882 24.6128H315.868C315.235 24.6128 314.722 25.1258 314.722 25.7587V27.5596C314.722 28.1925 314.209 28.7056 313.576 28.7056H303.589C302.956 28.7056 302.443 28.1925 302.443 27.5596V25.7587C302.443 25.1258 302.956 24.6128 303.589 24.6128H305.39C306.023 24.6128 306.536 24.0997 306.536 23.4669V21.6659C306.536 21.0331 307.049 20.52 307.682 20.52H309.483C310.116 20.52 310.629 20.007 310.629 19.3741V17.5732C310.629 16.9403 311.142 16.4272 311.775 16.4272H330.003C330.636 16.4272 331.149 16.9403 331.149 17.5732V19.3741C331.149 20.007 331.662 20.52 332.295 20.52H334.096C334.729 20.52 335.242 21.0331 335.242 21.6659V23.4669C335.242 24.0997 335.755 24.6128 336.388 24.6128H338.188C338.821 24.6128 339.334 25.1258 339.334 25.7587V56.2651C339.334 56.898 338.821 57.411 338.188 57.411H332.295C331.662 57.411 331.149 56.898 331.149 56.2651V54.4642C331.149 53.8313 330.636 53.3182 330.003 53.3182H328.174C327.541 53.3182 327.028 53.8313 327.028 54.4642V56.2651ZM312.675 48.0795C312.675 48.7124 313.188 49.2255 313.821 49.2255H325.882C326.515 49.2255 327.028 48.7124 327.028 48.0795V46.2786C327.028 45.6458 327.541 45.1327 328.174 45.1327H330.003C330.636 45.1327 331.149 44.6196 331.149 43.9868V38.0651C331.149 37.4322 330.636 36.9191 330.003 36.9191H328.174C327.541 36.9191 327.028 37.4322 327.028 38.0651V39.866C327.028 40.4988 326.515 41.0119 325.882 41.0119H313.821C313.188 41.0119 312.675 41.525 312.675 42.1578V48.0795Z" fill="white"/>
<path d="M289.517 56.2651C289.517 56.898 289.004 57.411 288.371 57.411H270.143C269.51 57.411 268.997 56.898 268.997 56.2651V54.4642C268.997 53.8313 268.484 53.3182 267.851 53.3182H266.05C265.417 53.3182 264.904 52.8052 264.904 52.1723V50.3714C264.904 49.7385 264.391 49.2255 263.758 49.2255H261.957C261.325 49.2255 260.812 48.7124 260.812 48.0795V25.7587C260.812 25.1258 261.325 24.6128 261.957 24.6128H263.758C264.391 24.6128 264.904 24.0997 264.904 23.4669V21.6659C264.904 21.0331 265.417 20.52 266.05 20.52H267.851C268.484 20.52 268.997 20.007 268.997 19.3741V17.5732C268.997 16.9403 269.51 16.4272 270.143 16.4272H288.371C289.004 16.4272 289.517 16.9403 289.517 17.5732V19.3741C289.517 20.007 290.03 20.52 290.663 20.52H292.464C293.097 20.52 293.61 21.0331 293.61 21.6659V23.4669C293.61 24.0997 294.123 24.6128 294.756 24.6128H296.557C297.189 24.6128 297.703 25.1258 297.703 25.7587V48.0795C297.703 48.7124 297.189 49.2255 296.557 49.2255H294.756C294.123 49.2255 293.61 49.7385 293.61 50.3714V52.1723C293.61 52.8052 293.097 53.3182 292.464 53.3182H290.663C290.03 53.3182 289.517 53.8313 289.517 54.4642V56.2651ZM273.09 48.0795C273.09 48.7124 273.603 49.2255 274.236 49.2255H284.25C284.883 49.2255 285.396 48.7124 285.396 48.0795V46.2786C285.396 45.6458 285.909 45.1327 286.542 45.1327H288.371C289.004 45.1327 289.517 44.6196 289.517 43.9868V29.8515C289.517 29.2186 289.004 28.7056 288.371 28.7056H286.542C285.909 28.7056 285.396 28.1925 285.396 27.5596V25.7587C285.396 25.1258 284.883 24.6128 284.25 24.6128H274.236C273.603 24.6128 273.09 25.1258 273.09 25.7587V27.5596C273.09 28.1925 272.577 28.7056 271.944 28.7056H270.143C269.51 28.7056 268.997 29.2186 268.997 29.8515V43.9868C268.997 44.6196 269.51 45.1327 270.143 45.1327H271.944C272.577 45.1327 273.09 45.6458 273.09 46.2786V48.0795Z" fill="white"/>
<path d="M227.365 56.265C227.365 56.8979 226.852 57.4109 226.219 57.4109H220.326C219.693 57.4109 219.18 56.8979 219.18 56.265V1.14593C219.18 0.513053 219.693 0 220.326 0H226.219C226.852 0 227.365 0.513052 227.365 1.14593V19.374C227.365 20.0069 227.878 20.5199 228.511 20.5199H230.312C230.945 20.5199 231.458 20.0069 231.458 19.374V17.5731C231.458 16.9402 231.971 16.4271 232.604 16.4271H246.739C247.372 16.4271 247.885 16.9402 247.885 17.5731V19.374C247.885 20.0069 248.398 20.5199 249.031 20.5199H250.832C251.465 20.5199 251.978 21.033 251.978 21.6659V23.4668C251.978 24.0996 252.491 24.6127 253.124 24.6127H254.925C255.558 24.6127 256.071 25.1257 256.071 25.7586V48.0794C256.071 48.7123 255.558 49.2254 254.925 49.2254H253.124C252.491 49.2254 251.978 49.7384 251.978 50.3713V52.1722C251.978 52.8051 251.465 53.3181 250.832 53.3181H249.031C248.398 53.3181 247.885 53.8312 247.885 54.4641V56.265C247.885 56.8979 247.372 57.4109 246.739 57.4109H232.604C231.971 57.4109 231.458 56.8979 231.458 56.265V54.4641C231.458 53.8312 230.945 53.3181 230.312 53.3181H228.511C227.878 53.3181 227.365 53.8312 227.365 54.4641V56.265ZM231.458 48.0794C231.458 48.7123 231.971 49.2254 232.604 49.2254H242.618C243.251 49.2254 243.764 48.7123 243.764 48.0794V46.2785C243.764 45.6457 244.277 45.1326 244.91 45.1326H246.739C247.372 45.1326 247.885 44.6196 247.885 43.9867V29.8514C247.885 29.2185 247.372 28.7055 246.739 28.7055H244.91C244.277 28.7055 243.764 28.1924 243.764 27.5595V25.7586C243.764 25.1257 243.251 24.6127 242.618 24.6127H232.604C231.971 24.6127 231.458 25.1257 231.458 25.7586V27.5595C231.458 28.1924 230.945 28.7055 230.312 28.7055H228.511C227.878 28.7055 227.365 29.2185 227.365 29.8514V43.9867C227.365 44.6196 227.878 45.1326 228.511 45.1326H230.312C230.945 45.1326 231.458 45.6457 231.458 46.2785V48.0794Z" fill="white"/>
<path d="M187.752 56.265C187.752 56.8979 187.239 57.4109 186.606 57.4109H180.712C180.079 57.4109 179.566 56.8979 179.566 56.265V1.14593C179.566 0.513053 180.079 0 180.712 0H186.606C187.239 0 187.752 0.513052 187.752 1.14593V19.374C187.752 20.0069 188.265 20.5199 188.898 20.5199H190.699C191.332 20.5199 191.845 20.0069 191.845 19.374V17.5731C191.845 16.9402 192.358 16.4271 192.991 16.4271H205.052C205.684 16.4271 206.197 16.9402 206.197 17.5731V19.374C206.197 20.0069 206.711 20.5199 207.343 20.5199H209.172C209.805 20.5199 210.318 21.033 210.318 21.6659V23.4668C210.318 24.0996 210.831 24.6127 211.464 24.6127H213.265C213.898 24.6127 214.411 25.1257 214.411 25.7586V56.265C214.411 56.8979 213.898 57.4109 213.265 57.4109H207.343C206.711 57.4109 206.197 56.8979 206.197 56.265V29.8514C206.197 29.2185 205.684 28.7055 205.052 28.7055H203.251C202.618 28.7055 202.105 28.1924 202.105 27.5595V25.7586C202.105 25.1257 201.592 24.6127 200.959 24.6127H192.991C192.358 24.6127 191.845 25.1257 191.845 25.7586V27.5595C191.845 28.1924 191.332 28.7055 190.699 28.7055H188.898C188.265 28.7055 187.752 29.2185 187.752 29.8514V56.265Z" fill="white"/>
<path d="M166.64 56.2651C166.64 56.898 166.127 57.411 165.494 57.411H147.266C146.633 57.411 146.12 56.898 146.12 56.2651V54.4642C146.12 53.8313 145.607 53.3182 144.974 53.3182H143.173C142.54 53.3182 142.027 52.8052 142.027 52.1723V50.3714C142.027 49.7385 141.514 49.2255 140.881 49.2255H139.081C138.448 49.2255 137.935 48.7124 137.935 48.0795V25.7587C137.935 25.1258 138.448 24.6128 139.081 24.6128H140.881C141.514 24.6128 142.027 24.0997 142.027 23.4669V21.6659C142.027 21.0331 142.54 20.52 143.173 20.52H144.974C145.607 20.52 146.12 20.007 146.12 19.3741V17.5732C146.12 16.9403 146.633 16.4272 147.266 16.4272H165.494C166.127 16.4272 166.64 16.9403 166.64 17.5732V19.3741C166.64 20.007 167.153 20.52 167.786 20.52H169.587C170.22 20.52 170.733 21.0331 170.733 21.6659V23.4669C170.733 24.0997 171.246 24.6128 171.879 24.6128H173.68C174.313 24.6128 174.826 25.1258 174.826 25.7587V31.6804C174.826 32.3133 174.313 32.8264 173.68 32.8264H167.786C167.153 32.8264 166.64 32.3133 166.64 31.6804V29.8515C166.64 29.2186 166.127 28.7056 165.494 28.7056H163.665C163.032 28.7056 162.519 28.1925 162.519 27.5596V25.7587C162.519 25.1258 162.006 24.6128 161.373 24.6128H151.359C150.726 24.6128 150.213 25.1258 150.213 25.7587V27.5596C150.213 28.1925 149.7 28.7056 149.067 28.7056H147.266C146.633 28.7056 146.12 29.2186 146.12 29.8515V43.9868C146.12 44.6196 146.633 45.1327 147.266 45.1327H149.067C149.7 45.1327 150.213 45.6458 150.213 46.2786V48.0795C150.213 48.7124 150.726 49.2255 151.359 49.2255H161.373C162.006 49.2255 162.519 48.7124 162.519 48.0795V46.2786C162.519 45.6458 163.032 45.1327 163.665 45.1327H165.494C166.127 45.1327 166.64 44.6196 166.64 43.9868V42.1578C166.64 41.525 167.153 41.0119 167.786 41.0119H173.68C174.313 41.0119 174.826 41.525 174.826 42.1578V48.0795C174.826 48.7124 174.313 49.2255 173.68 49.2255H171.879C171.246 49.2255 170.733 49.7385 170.733 50.3714V52.1723C170.733 52.8052 170.22 53.3182 169.587 53.3182H167.786C167.153 53.3182 166.64 53.8313 166.64 54.4642V56.2651Z" fill="white"/>
<path d="M135.184 56.2653C135.184 56.8982 134.671 57.4112 134.038 57.4112H124.023C123.39 57.4112 122.877 56.8982 122.877 56.2653V54.4644C122.877 53.8315 122.364 53.3184 121.731 53.3184H119.931C119.298 53.3184 118.785 52.8054 118.785 52.1725V23.7125C118.785 23.0796 118.272 22.5666 117.639 22.5666H113.791C113.159 22.5666 112.646 22.0535 112.646 21.4207V17.5734C112.646 16.9405 113.159 16.4274 113.791 16.4274H117.639C118.272 16.4274 118.785 15.9144 118.785 15.2815V5.26703C118.785 4.63415 119.298 4.12109 119.931 4.12109H125.852C126.485 4.12109 126.998 4.63415 126.998 5.26703V15.2815C126.998 15.9144 127.511 16.4274 128.144 16.4274H134.038C134.671 16.4274 135.184 16.9405 135.184 17.5734V21.4207C135.184 22.0535 134.671 22.5666 134.038 22.5666H128.144C127.511 22.5666 126.998 23.0796 126.998 23.7125V48.0797C126.998 48.7126 127.511 49.2257 128.144 49.2257H134.038C134.671 49.2257 135.184 49.7387 135.184 50.3716V56.2653Z" fill="white"/>
<path d="M109.951 9.11431C109.951 9.7472 109.438 10.2602 108.805 10.2602H102.912C102.279 10.2602 101.766 9.7472 101.766 9.11431V3.22064C101.766 2.58776 102.279 2.07471 102.912 2.07471H108.805C109.438 2.07471 109.951 2.58776 109.951 3.22064V9.11431ZM109.951 56.2653C109.951 56.8982 109.438 57.4112 108.805 57.4112H102.912C102.279 57.4112 101.766 56.8982 101.766 56.2653V17.5734C101.766 16.9405 102.279 16.4274 102.912 16.4274H108.805C109.438 16.4274 109.951 16.9405 109.951 17.5734V56.2653Z" fill="white"/>
<path d="M66.2448 56.2651C66.2448 56.898 65.7318 57.411 65.0989 57.411H55.0844C54.4515 57.411 53.9385 56.898 53.9385 56.2651V46.2786C53.9385 45.6458 53.4254 45.1327 52.7925 45.1327H50.9916C50.3588 45.1327 49.8457 44.6196 49.8457 43.9868V29.8515C49.8457 29.2186 49.3326 28.7056 48.6998 28.7056H46.8989C46.266 28.7056 45.7529 28.1925 45.7529 27.5596V17.5732C45.7529 16.9403 46.266 16.4272 46.8989 16.4272H52.7925C53.4254 16.4272 53.9385 16.9403 53.9385 17.5732V27.5596C53.9385 28.1925 54.4515 28.7056 55.0844 28.7056H56.8853C57.5182 28.7056 58.0312 29.2186 58.0312 29.8515V43.9868C58.0312 44.6196 58.5443 45.1327 59.1772 45.1327H63.0525C63.6854 45.1327 64.1984 44.6196 64.1984 43.9868V29.8515C64.1984 29.2186 64.7115 28.7056 65.3444 28.7056H67.1453C67.7782 28.7056 68.2912 28.1925 68.2912 27.5596V17.5732C68.2912 16.9403 68.8043 16.4272 69.4371 16.4272H75.3588C75.9917 16.4272 76.5048 16.9403 76.5048 17.5732V27.5596C76.5048 28.1925 77.0178 28.7056 77.6507 28.7056H79.4516C80.0845 28.7056 80.5975 29.2186 80.5975 29.8515V43.9868C80.5975 44.6196 81.1106 45.1327 81.7435 45.1327H85.5908C86.2236 45.1327 86.7367 44.6196 86.7367 43.9868V29.8515C86.7367 29.2186 87.2497 28.7056 87.8826 28.7056H89.7116C90.3445 28.7056 90.8575 28.1925 90.8575 27.5596V17.5732C90.8575 16.9403 91.3706 16.4272 92.0034 16.4272H97.8971C98.53 16.4272 99.043 16.9403 99.043 17.5732V27.5596C99.043 28.1925 98.53 28.7056 97.8971 28.7056H96.0962C95.4633 28.7056 94.9503 29.2186 94.9503 29.8515V43.9868C94.9503 44.6196 94.4372 45.1327 93.8043 45.1327H92.0034C91.3706 45.1327 90.8575 45.6458 90.8575 46.2786V56.2651C90.8575 56.898 90.3445 57.411 89.7116 57.411H79.6971C79.0642 57.411 78.5512 56.898 78.5512 56.2651V46.2786C78.5512 45.6458 78.0381 45.1327 77.4052 45.1327H75.6043C74.9714 45.1327 74.4584 44.6196 74.4584 43.9868V29.8515C74.4584 29.2186 73.9453 28.7056 73.3125 28.7056H71.4835C70.8506 28.7056 70.3376 29.2186 70.3376 29.8515V43.9868C70.3376 44.6196 69.8245 45.1327 69.1917 45.1327H67.3907C66.7579 45.1327 66.2448 45.6458 66.2448 46.2786V56.2651Z" fill="white"/>
<path d="M36.891 56.265C36.891 56.8979 36.3779 57.4109 35.7451 57.4109H9.33148C8.69859 57.4109 8.18554 56.8979 8.18554 56.265V54.4641C8.18554 53.8312 7.67249 53.3181 7.03961 53.3181H5.2387C4.60582 53.3181 4.09277 52.8051 4.09277 52.1722V50.3713C4.09277 49.7384 3.57972 49.2254 2.94684 49.2254H1.14593C0.513051 49.2254 0 48.7123 0 48.0794V42.1577C0 41.5249 0.513052 41.0118 1.14593 41.0118H7.03961C7.67249 41.0118 8.18554 41.5249 8.18554 42.1577V43.9867C8.18554 44.6196 8.69859 45.1326 9.33148 45.1326H11.1324C11.7653 45.1326 12.2783 45.6457 12.2783 46.2785V48.0794C12.2783 48.7123 12.7914 49.2254 13.4242 49.2254H31.6523C32.2852 49.2254 32.7982 48.7123 32.7982 48.0794V46.2785C32.7982 45.6457 33.3113 45.1326 33.9442 45.1326H35.7451C36.3779 45.1326 36.891 44.6196 36.891 43.9867V38.065C36.891 37.4321 36.3779 36.919 35.7451 36.919H33.9442C33.3113 36.919 32.7982 36.406 32.7982 35.7731V33.9722C32.7982 33.3393 32.2852 32.8263 31.6523 32.8263H13.4242C12.7914 32.8263 12.2783 32.3132 12.2783 31.6803V29.8514C12.2783 29.2185 11.7653 28.7055 11.1324 28.7055H5.2387C4.60582 28.7055 4.09277 28.1924 4.09277 27.5595V25.7586C4.09277 25.1257 3.57972 24.6127 2.94684 24.6127H1.14593C0.513051 24.6127 0 24.0996 0 23.4668V9.35951C0 8.72663 0.513052 8.21357 1.14593 8.21357H2.94684C3.57972 8.21357 4.09277 7.70052 4.09277 7.06764V5.26674C4.09277 4.63385 4.60582 4.1208 5.2387 4.1208H7.03961C7.67249 4.1208 8.18554 3.60775 8.18554 2.97487V1.14593C8.18554 0.513052 8.69859 0 9.33148 0H35.7451C36.3779 0 36.891 0.513052 36.891 1.14593V2.97487C36.891 3.60775 37.4041 4.1208 38.0369 4.1208H39.8378C40.4707 4.1208 40.9838 4.63386 40.9838 5.26674V7.06764C40.9838 7.70052 41.4968 8.21357 42.1297 8.21357H43.9586C44.5915 8.21357 45.1046 8.72663 45.1046 9.35951V15.2812C45.1046 15.9141 44.5915 16.4271 43.9586 16.4271H38.0369C37.4041 16.4271 36.891 15.9141 36.891 15.2812V13.4523C36.891 12.8194 36.3779 12.3063 35.7451 12.3063H33.9442C33.3113 12.3063 32.7982 11.7933 32.7982 11.1604V9.35951C32.7982 8.72663 32.2852 8.21357 31.6523 8.21357H13.4242C12.7914 8.21357 12.2783 8.72663 12.2783 9.35951V11.1604C12.2783 11.7933 11.7653 12.3063 11.1324 12.3063H9.33147C8.69859 12.3063 8.18554 12.8194 8.18554 13.4523V19.374C8.18554 20.0069 8.69859 20.5199 9.33148 20.5199H11.1324C11.7653 20.5199 12.2783 21.033 12.2783 21.6659V23.4668C12.2783 24.0996 12.7914 24.6127 13.4242 24.6127H31.6523C32.2852 24.6127 32.7982 25.1257 32.7982 25.7586V27.5595C32.7982 28.1924 33.3113 28.7055 33.9442 28.7055H39.8378C40.4707 28.7055 40.9838 29.2185 40.9838 29.8514V31.6803C40.9838 32.3132 41.4968 32.8263 42.1297 32.8263H43.9586C44.5915 32.8263 45.1046 33.3393 45.1046 33.9722V48.0794C45.1046 48.7123 44.5915 49.2254 43.9586 49.2254H42.1297C41.4968 49.2254 40.9838 49.7384 40.9838 50.3713V52.1722C40.9838 52.8051 40.4707 53.3181 39.8378 53.3181H38.0369C37.4041 53.3181 36.891 53.8312 36.891 54.4641V56.265Z" fill="white"/>
</svg>
