<svg width="88" height="118" viewBox="0 0 88 118" fill="none" xmlns="http://www.w3.org/2000/svg">
  <path fill-rule="evenodd" clip-rule="evenodd" d="M67.0199 0.447569C69.8347 -1.16003 72.4827 1.87806 70.6721 4.56673L46.2995 40.7587C44.9113 42.8202 45.9902 45.6345 48.4008 46.2396L84.8126 55.3793C87.3113 56.0065 88.3478 58.9871 86.7392 60.9993C60.4606 93.8732 33.0264 110.656 19.3036 117.633C16.5258 119.045 14.0769 116.11 15.8005 113.514L40.6421 76.0984C42.0107 74.037 40.9296 71.2417 38.53 70.6377L2.69747 61.6181C0.149319 60.9767 -0.862386 57.9048 0.845151 55.9076C26.423 25.991 53.0469 8.428 67.0199 0.447569Z" fill="white"/>
</svg>

